<svg xmlns="http://www.w3.org/2000/svg" width="375" height="375" viewBox="0 0 375 375">
  <path fill="currentColor" d="M201.36 53.03c-9.8-4.9-22.55-7.59-35.95-7.59-13.4 0-26.16 2.7-35.95 7.59-12.2 6.1-18.93 15.11-18.93 25.36 0 10.24 6.72 19.25 18.93 25.36 9.78 4.89 22.55 7.6 35.95 7.6 13.4 0 26.16-2.7 35.95-7.6 12.2-6.1 18.93-15.1 18.93-25.36 0-10.25-6.72-19.26-18.93-25.36zm-9.82 31.06c-6.7 3.36-16.22 5.28-26.13 5.28-9.9 0-19.43-1.92-26.13-5.28-5.61-2.8-6.8-5.33-6.8-5.7 0-.38 1.19-2.91 6.8-5.72 6.7-3.35 16.23-5.27 26.13-5.27 9.9 0 19.44 1.92 26.14 5.27 5.6 2.8 6.8 5.33 6.8 5.72 0 .37-1.2 2.9-6.8 5.7z"/>
  <style>
    svg {
      color: #4f46e5;
    }
    @media (prefers-color-scheme: dark) {
      svg {
        color: #6366f1;
      }
    }
  </style>
</svg>
