<svg xmlns="http://www.w3.org/2000/svg" xmlns:xlink="http://www.w3.org/1999/xlink" width="500" zoomAndPan="magnify" viewBox="0 0 375 374.999991" height="500" preserveAspectRatio="xMidYMid meet" version="1.0"><defs><g/><clipPath id="fd7f86963a"><path d="M 22.734375 0 L 351.984375 0 L 351.984375 375 L 22.734375 375 Z M 22.734375 0 " clip-rule="nonzero"/></clipPath></defs><path fill="#000000" d="M 201.359375 53.03125 C 191.570312 48.132812 178.808594 45.4375 165.410156 45.4375 C 152.011719 45.4375 139.246094 48.132812 129.460938 53.03125 C 117.253906 59.132812 110.535156 68.140625 110.535156 78.390625 C 110.535156 88.632812 117.253906 97.640625 129.460938 103.746094 C 139.246094 108.640625 152.011719 111.34375 165.410156 111.34375 C 178.808594 111.34375 191.570312 108.640625 201.359375 103.746094 C 213.566406 97.640625 220.285156 88.632812 220.285156 78.390625 C 220.285156 68.140625 213.566406 59.132812 201.359375 53.03125 Z M 191.542969 84.09375 C 184.84375 87.449219 175.320312 89.375 165.410156 89.375 C 155.5 89.375 145.976562 87.449219 139.277344 84.09375 C 133.664062 81.292969 132.484375 78.765625 132.484375 78.390625 C 132.484375 78.007812 133.664062 75.484375 139.277344 72.679688 C 145.976562 69.324219 155.5 67.40625 165.410156 67.40625 C 175.320312 67.40625 184.84375 69.324219 191.542969 72.679688 C 197.152344 75.484375 198.335938 78.007812 198.335938 78.390625 C 198.335938 78.765625 197.152344 81.292969 191.542969 84.09375 Z M 191.542969 84.09375 " fill-opacity="1" fill-rule="nonzero"/><g clip-path="url(#fd7f86963a)"><path fill="#000000" d="M 266.355469 309.0625 C 269.300781 307.492188 272.144531 305.851562 274.84375 304.136719 C 296.28125 290.507812 308.085938 272.753906 308.085938 254.140625 C 308.085938 238.546875 300.074219 223.828125 284.871094 211.363281 C 283.796875 207.214844 282.046875 203.152344 279.65625 199.253906 C 283.117188 193.640625 285.21875 187.703125 285.890625 181.546875 C 285.894531 181.503906 285.902344 181.460938 285.90625 181.421875 C 286.824219 172.742188 284.886719 164.25 280.277344 156.328125 L 280.257812 156.335938 C 280.0625 155.996094 279.859375 155.65625 279.652344 155.320312 C 283.917969 148.410156 286.136719 141.003906 286.136719 133.3125 C 286.136719 129.347656 285.535156 125.433594 284.347656 121.605469 C 299.804688 109.140625 308.085938 94.273438 308.085938 78.390625 C 308.085938 56.375 292.273438 36.097656 263.5625 21.289062 C 236.988281 7.582031 202.128906 0.03125 165.410156 0.03125 C 128.691406 0.03125 93.828125 7.582031 67.257812 21.289062 C 38.546875 36.097656 22.734375 56.375 22.734375 78.390625 C 22.734375 94.273438 31.015625 109.140625 46.472656 121.605469 C 45.285156 125.433594 44.683594 129.347656 44.683594 133.3125 C 44.683594 141.003906 46.902344 148.410156 51.167969 155.320312 C 50.960938 155.65625 50.757812 155.996094 50.558594 156.335938 L 50.542969 156.332031 C 45.535156 164.933594 43.824219 174.007812 45.085938 182.851562 C 45.105469 182.992188 45.132812 183.125 45.152344 183.265625 C 46.003906 188.808594 48.027344 194.164062 51.164062 199.253906 C 48.773438 203.152344 47.023438 207.21875 45.949219 211.363281 C 30.746094 223.828125 22.734375 238.546875 22.734375 254.140625 C 22.734375 273.878906 35.855469 292.441406 59.683594 306.398438 C 80.242188 318.445312 108.078125 326.660156 138.433594 329.695312 C 150.984375 356.902344 177.449219 374.964844 207.882812 374.964844 L 351.984375 374.964844 L 351.984375 309.0625 Z M 281.511719 239.773438 C 284.277344 244.046875 286.136719 248.878906 286.136719 254.140625 C 286.136719 264.964844 277.941406 276.140625 263.074219 285.59375 C 247.347656 295.59375 225.242188 302.984375 200.523438 306.570312 C 198.53125 304.914062 197.105469 302.53125 196.632812 299.757812 C 195.710938 294.273438 194.632812 289.917969 193.195312 285.410156 C 236.660156 280.078125 269.78125 262.628906 281.511719 239.773438 Z M 67.324219 172.4375 C 71.878906 175.863281 77.074219 179.058594 82.894531 181.96875 C 105.117188 193.089844 134.425781 199.21875 165.410156 199.21875 C 196.394531 199.21875 225.699219 193.089844 247.921875 181.96875 C 253.746094 179.058594 258.941406 175.863281 263.492188 172.4375 C 264.039062 174.367188 264.265625 176.351562 264.152344 178.21875 C 264.152344 178.230469 264.152344 178.25 264.148438 178.261719 C 262.855469 198.777344 222.671875 221.1875 165.410156 221.1875 C 147.972656 221.1875 132.121094 219.105469 118.460938 215.636719 C 117.890625 215.472656 117.320312 215.300781 116.746094 215.144531 C 100.1875 210.738281 76.089844 200.777344 68.640625 185.398438 C 66.574219 181.140625 66.0625 176.871094 67.324219 172.4375 Z M 66.679688 134.457031 C 66.914062 134.578125 67.140625 134.699219 67.375 134.816406 C 93.742188 148.011719 128.558594 155.28125 165.410156 155.28125 C 202.257812 155.28125 237.074219 148.011719 263.441406 134.816406 C 263.679688 134.699219 263.90625 134.578125 264.136719 134.457031 C 262.683594 154.941406 222.550781 177.25 165.410156 177.25 C 108.269531 177.25 68.136719 154.941406 66.679688 134.457031 Z M 247.921875 225.910156 C 253.746094 222.996094 258.941406 219.800781 263.492188 216.375 C 263.949219 217.984375 264.183594 219.585938 264.183594 221.1875 C 264.183594 239.027344 233.550781 259.992188 183.605469 264.328125 C 179.074219 256.839844 173.527344 249.847656 167.042969 243.53125 C 166.90625 243.398438 166.765625 243.273438 166.625 243.140625 C 197.160156 242.980469 225.992188 236.882812 247.921875 225.910156 Z M 44.683594 78.390625 C 44.683594 65.207031 56.574219 51.511719 77.308594 40.816406 C 100.835938 28.683594 132.121094 22 165.410156 22 C 198.695312 22 229.984375 28.683594 253.507812 40.816406 C 274.242188 51.511719 286.136719 65.207031 286.136719 78.390625 C 286.136719 91.421875 274.285156 104.828125 253.628906 115.164062 C 230.246094 126.867188 198.917969 133.3125 165.410156 133.3125 C 131.902344 133.3125 100.570312 126.867188 77.191406 115.164062 C 56.53125 104.828125 44.683594 91.421875 44.683594 78.390625 Z M 44.683594 254.140625 C 44.683594 248.894531 46.527344 244.082031 49.28125 239.816406 C 57.914062 256.757812 78.363281 270.890625 107.546875 279.324219 C 124.992188 284.371094 129.699219 293.546875 131.636719 306.714844 C 131.636719 306.734375 131.636719 306.746094 131.640625 306.765625 C 81.964844 299.808594 44.683594 277.769531 44.683594 254.140625 Z M 330.035156 353 L 207.882812 353.074219 C 180.5 353.074219 157.566406 332.1875 153.347656 303.519531 C 149.808594 279.421875 137.191406 265.03125 113.640625 258.222656 C 85.082031 249.964844 66.636719 235.429688 66.636719 221.1875 C 66.636719 219.585938 66.863281 217.984375 67.320312 216.371094 C 79.917969 225.847656 95.890625 232.332031 111.117188 236.382812 C 142.367188 244.714844 169.21875 269.246094 174.992188 303.417969 C 177.699219 319.414062 191.292969 331.03125 207.324219 331.03125 L 330.035156 330.953125 Z M 330.035156 353 " fill-opacity="1" fill-rule="nonzero"/></g><g fill="#000000" fill-opacity="1"><g transform="translate(179.109367, 191.999987)"><g><path d="M 3.796875 0 L 2.796875 0 L 2.796875 -7.6875 L 0.109375 -7.6875 L 0.109375 -8.5625 L 6.484375 -8.5625 L 6.484375 -7.6875 L 3.796875 -7.6875 Z M 3.796875 0 "/></g></g><g transform="translate(185.718742, 191.999987)"><g><path d="M 3.5 -6.546875 C 4.039062 -6.546875 4.503906 -6.421875 4.890625 -6.171875 C 5.285156 -5.929688 5.585938 -5.59375 5.796875 -5.15625 C 6.003906 -4.71875 6.109375 -4.210938 6.109375 -3.640625 L 6.109375 -3.03125 L 1.671875 -3.03125 C 1.679688 -2.28125 1.867188 -1.707031 2.234375 -1.3125 C 2.597656 -0.914062 3.113281 -0.71875 3.78125 -0.71875 C 4.1875 -0.71875 4.546875 -0.753906 4.859375 -0.828125 C 5.171875 -0.898438 5.492188 -1.007812 5.828125 -1.15625 L 5.828125 -0.296875 C 5.503906 -0.148438 5.179688 -0.046875 4.859375 0.015625 C 4.546875 0.0859375 4.171875 0.125 3.734375 0.125 C 3.117188 0.125 2.582031 0 2.125 -0.25 C 1.664062 -0.507812 1.304688 -0.882812 1.046875 -1.375 C 0.796875 -1.863281 0.671875 -2.460938 0.671875 -3.171875 C 0.671875 -3.859375 0.785156 -4.453125 1.015625 -4.953125 C 1.242188 -5.460938 1.570312 -5.851562 2 -6.125 C 2.425781 -6.40625 2.925781 -6.546875 3.5 -6.546875 Z M 3.484375 -5.75 C 2.960938 -5.75 2.546875 -5.578125 2.234375 -5.234375 C 1.929688 -4.890625 1.75 -4.414062 1.6875 -3.8125 L 5.09375 -3.8125 C 5.09375 -4.195312 5.03125 -4.53125 4.90625 -4.8125 C 4.789062 -5.101562 4.613281 -5.332031 4.375 -5.5 C 4.144531 -5.664062 3.847656 -5.75 3.484375 -5.75 Z M 3.484375 -5.75 "/></g></g><g transform="translate(192.457023, 191.999987)"><g><path d="M 2.5625 -3.28125 L 0.328125 -6.421875 L 1.453125 -6.421875 L 3.140625 -3.953125 L 4.828125 -6.421875 L 5.9375 -6.421875 L 3.703125 -3.28125 L 6.046875 0 L 4.9375 0 L 3.140625 -2.625 L 1.328125 0 L 0.234375 0 Z M 2.5625 -3.28125 "/></g></g><g transform="translate(198.738272, 191.999987)"><g><path d="M 3.09375 -0.6875 C 3.257812 -0.6875 3.425781 -0.695312 3.59375 -0.71875 C 3.757812 -0.75 3.894531 -0.785156 4 -0.828125 L 4 -0.0625 C 3.882812 -0.0078125 3.726562 0.03125 3.53125 0.0625 C 3.332031 0.101562 3.132812 0.125 2.9375 0.125 C 2.601562 0.125 2.296875 0.0664062 2.015625 -0.046875 C 1.734375 -0.171875 1.507812 -0.375 1.34375 -0.65625 C 1.1875 -0.945312 1.109375 -1.347656 1.109375 -1.859375 L 1.109375 -5.65625 L 0.1875 -5.65625 L 0.1875 -6.140625 L 1.109375 -6.515625 L 1.5 -7.90625 L 2.078125 -7.90625 L 2.078125 -6.421875 L 3.96875 -6.421875 L 3.96875 -5.65625 L 2.078125 -5.65625 L 2.078125 -1.875 C 2.078125 -1.476562 2.171875 -1.179688 2.359375 -0.984375 C 2.546875 -0.785156 2.789062 -0.6875 3.09375 -0.6875 Z M 3.09375 -0.6875 "/></g></g></g></svg>